<svg width="843" height="228" viewBox="0 0 843 228" fill="none" xmlns="http://www.w3.org/2000/svg">
<path d="M0 4C0 1.79086 1.79086 0 4 0H839C841.209 0 843 1.79086 843 4V228H0V4Z" fill="#BDBDBD"/>
<path d="M441.681 59.3233L408.048 101.276L433.7 133.3C437.463 137.997 436.437 144.723 431.42 148.245C426.404 151.768 419.221 150.914 415.459 146.11C403.488 131.165 389.123 113.338 380.116 101.916C375.556 96.2585 366.435 96.2585 361.875 101.916L316.271 158.813C310.685 165.966 316.043 176 325.392 176H530.608C539.957 176 545.315 165.966 539.729 158.92L459.923 59.3233C455.362 53.5589 446.241 53.5589 441.681 59.3233Z" fill="white"/>
</svg>
